<?xml version="1.0" encoding="UTF-8"?>
<svg xmlns="http://www.w3.org/2000/svg" xmlns:xlink="http://www.w3.org/1999/xlink" width="90pt" height="105pt" viewBox="0 0 90 105" version="1.1">
<g id="surface1">
<path style=" stroke:none;fill-rule:nonzero;fill:rgb(0%,0%,0%);fill-opacity:1;" d="M 41.867188 0.0820312 C 38.691406 0.441406 35.914062 1.699219 33.898438 3.691406 C 31.210938 6.339844 29.757812 10.082031 29.542969 14.90625 C 29.507812 15.617188 29.609375 19.082031 29.789062 24.222656 C 29.957031 28.726562 30.089844 32.828125 30.089844 33.335938 C 30.089844 35.109375 29.683594 36.578125 28.742188 38.175781 C 28.320312 38.898438 26.898438 40.648438 24.839844 42.984375 C 22.824219 45.257812 22.035156 46.207031 21.1875 47.375 C 19.691406 49.421875 19.292969 50.367188 17.773438 55.371094 C 16.21875 60.5 15.695312 61.710938 14.152344 63.902344 C 13.292969 65.132812 12.421875 66.796875 12.144531 67.757812 C 12.035156 68.160156 11.953125 68.726562 11.929688 69.382812 C 11.871094 70.585938 11.992188 71.226562 12.488281 72.253906 L 12.820312 72.933594 L 12.664062 73.15625 C 12.574219 73.277344 12.316406 73.777344 12.085938 74.261719 C 11.375 75.757812 10.671875 76.578125 9.6875 77.070312 C 8.796875 77.511719 8.605469 77.542969 6.554688 77.570312 C 5.09375 77.585938 4.511719 77.625 4.074219 77.734375 C 2.894531 78.019531 2.117188 78.585938 1.679688 79.472656 C 1.378906 80.070312 1.324219 81.179688 1.519531 82.253906 C 2.015625 84.953125 2.023438 88.453125 1.527344 90.832031 C 1.445312 91.21875 1.214844 91.835938 0.949219 92.390625 C -0.496094 95.386719 -0.273438 96.929688 1.742188 97.886719 C 2.429688 98.214844 4.71875 98.890625 6.28125 99.21875 C 6.851562 99.339844 7.894531 99.601562 8.597656 99.789062 C 10.042969 100.191406 12.367188 100.765625 14.09375 101.144531 C 17.648438 101.921875 19.605469 102.53125 21.730469 103.515625 C 23.738281 104.449219 25.277344 104.835938 26.996094 104.835938 C 28.582031 104.835938 29.988281 104.46875 31.105469 103.746094 C 31.75 103.328125 32.105469 103.007812 32.800781 102.226562 C 33.089844 101.90625 33.578125 101.457031 33.875 101.234375 C 35.503906 100.019531 36.839844 99.789062 43.519531 99.578125 C 47.679688 99.4375 51.382812 99.601562 58.035156 100.210938 L 58.589844 100.257812 L 58.640625 100.59375 C 58.671875 100.773438 58.828125 101.226562 58.984375 101.59375 C 59.472656 102.71875 60.191406 103.441406 61.457031 104.066406 C 64.195312 105.410156 68.34375 105.269531 71.128906 103.738281 C 71.589844 103.484375 72.039062 103.089844 73.320312 101.800781 C 74.9375 100.167969 75.550781 99.644531 76.914062 98.675781 C 78.683594 97.421875 80.949219 96.066406 81.949219 95.664062 C 84 94.851562 86.777344 93.253906 88.074219 92.128906 C 89.230469 91.136719 89.917969 90.101562 89.992188 89.25 C 90.082031 88.265625 89.480469 87.519531 87.902344 86.683594 C 85.511719 85.410156 83.734375 83.933594 82.917969 82.546875 C 82.757812 82.285156 82.484375 81.851562 82.3125 81.589844 C 81.839844 80.867188 81.683594 80.257812 81.578125 78.726562 C 81.4375 76.691406 81.246094 76.035156 80.59375 75.386719 C 80.410156 75.207031 80.082031 74.96875 79.859375 74.851562 C 79.394531 74.625 79.394531 74.699219 79.792969 73.828125 C 80.296875 72.710938 80.625 71.171875 80.773438 69.257812 C 81.246094 63.066406 78.542969 53.515625 74.691406 47.824219 C 74.238281 47.152344 73.742188 46.59375 72.453125 45.3125 C 70.167969 43.050781 69.167969 41.703125 67.175781 38.25 C 64.597656 33.789062 63.597656 31.640625 62.945312 29.144531 C 62.484375 27.398438 62.351562 26.210938 62.242188 22.820312 C 62.203125 21.359375 62.128906 19.84375 62.078125 19.449219 C 62.035156 19.046875 61.960938 18.113281 61.914062 17.367188 C 61.597656 12.164062 59.902344 8.097656 56.769531 4.996094 C 54.152344 2.410156 50.828125 0.8125 46.785156 0.203125 C 45.761719 0.0507812 42.816406 -0.0234375 41.867188 0.0820312 Z M 41.867188 0.0820312 "/>
</g>
</svg>
