<?xml version="1.0" encoding="UTF-8"?>
<svg xmlns="http://www.w3.org/2000/svg" xmlns:xlink="http://www.w3.org/1999/xlink" width="90pt" height="180pt" viewBox="0 0 90 180" version="1.1">
<g id="surface1">
<path style=" stroke:none;fill-rule:nonzero;fill:rgb(0%,0%,0%);fill-opacity:1;" d="M 62.507812 0.335938 C 62.042969 0.507812 60.679688 1.292969 59.484375 2.066406 L 57.304688 3.5 L 55.6875 3.207031 C 53.210938 2.757812 49.964844 2.785156 47.839844 3.277344 C 44.550781 4.035156 42.945312 5.230469 41.640625 7.875 C 40.09375 11.011719 38.515625 16.59375 37.070312 24.003906 C 36.070312 29.109375 36 29.433594 35.492188 30.261719 C 34.074219 32.652344 28.574219 40.203125 23.160156 47.222656 C 20.839844 50.230469 20.8125 50.300781 20.039062 53.507812 C 18.730469 58.976562 18.238281 64.800781 18.238281 74.8125 C 18.238281 82.519531 18.367188 85.570312 19.546875 108.140625 C 20.195312 120.671875 20.390625 127.054688 20.390625 135.984375 C 20.390625 148.175781 20.867188 151.117188 24.074219 159.046875 C 25.960938 163.6875 25.972656 163.730469 26.140625 167.203125 C 26.226562 168.863281 26.296875 171.027344 26.296875 172.011719 L 26.296875 173.796875 L 24.355469 175.484375 C 23.273438 176.398438 22.234375 177.371094 22.035156 177.609375 C 21.53125 178.199219 20.910156 179.253906 20.980469 179.421875 C 20.996094 179.507812 21.472656 179.28125 22.007812 178.929688 C 23.457031 178.003906 24.273438 177.609375 24.734375 177.609375 C 25.269531 177.609375 28.871094 178.539062 29.628906 178.875 C 30.078125 179.070312 30.234375 179.101562 30.234375 178.960938 C 30.234375 178.648438 30.699219 178.339844 31.429688 178.15625 C 31.824219 178.074219 32.289062 177.90625 32.484375 177.804688 C 32.878906 177.625 33.160156 177.707031 33.679688 178.1875 C 34.046875 178.507812 36.28125 179.859375 36.464844 179.859375 C 36.535156 179.859375 35.226562 178.46875 33.566406 176.765625 C 29.953125 173.082031 30.148438 173.558594 30.65625 170.015625 C 30.839844 168.734375 31.007812 167.429688 31.035156 167.117188 L 31.105469 166.527344 L 32.246094 166.964844 C 33.792969 167.539062 36.15625 168.144531 37.96875 168.441406 C 39.050781 168.609375 40.273438 168.664062 42.609375 168.664062 C 45.871094 168.652344 47.910156 168.441406 50.863281 167.792969 L 52.003906 167.539062 L 53.507812 170.242188 L 55 172.941406 L 53.621094 174.277344 C 52.859375 175.007812 52.074219 175.738281 51.875 175.90625 C 51.101562 176.511719 49.515625 178.664062 49.289062 179.410156 C 49.203125 179.703125 49.304688 179.664062 50.230469 179.058594 C 51.90625 177.917969 52.523438 177.609375 53.042969 177.609375 C 53.648438 177.609375 57.09375 178.480469 57.980469 178.859375 C 58.484375 179.085938 58.640625 179.101562 58.640625 178.960938 C 58.640625 178.648438 59.046875 178.398438 60.214844 178.015625 L 61.328125 177.664062 L 62.410156 178.425781 C 63.335938 179.070312 64.6875 179.859375 64.871094 179.859375 C 64.914062 179.859375 63.4375 178.367188 61.59375 176.554688 L 58.261719 173.234375 L 58.851562 170.886719 C 59.582031 167.976562 60.371094 163.828125 61.382812 157.429688 C 62.832031 148.316406 63.746094 143.972656 65.023438 139.976562 C 66.078125 136.6875 66.5 134.113281 67.148438 126.914062 C 67.34375 124.75 67.695312 121.007812 67.921875 118.617188 C 68.148438 116.210938 68.46875 112.640625 68.625 110.671875 C 69.003906 105.933594 69.34375 102.5 70.171875 94.710938 C 71.535156 82 71.632812 80.605469 71.632812 74.953125 C 71.632812 69.90625 71.492188 68.132812 70.789062 63.84375 C 69.917969 58.527344 68.132812 52.003906 65.714844 45.140625 C 64.925781 42.917969 64.828125 42.734375 63.507812 40.878906 C 60.777344 37.011719 58.457031 34.46875 56.433594 33.089844 C 55.785156 32.652344 55.238281 32.1875 55.195312 32.078125 C 55.039062 31.554688 54.421875 28.449219 54.421875 28.179688 C 54.421875 27.703125 55.070312 25.902344 55.984375 23.792969 C 58.234375 18.660156 58.78125 16.945312 59.078125 14.078125 C 59.203125 12.839844 59.203125 12.050781 59.078125 10.644531 C 58.9375 9.054688 58.9375 8.789062 59.117188 8.691406 C 59.398438 8.535156 60.636719 7.214844 62.183594 5.414062 C 63.800781 3.542969 64.925781 2.488281 65.515625 2.304688 L 65.953125 2.179688 L 65.617188 1.476562 C 64.941406 0.0273438 64.125 -0.28125 62.507812 0.335938 Z M 62.507812 0.335938 "/>
</g>
</svg>
