<?xml version="1.0" encoding="UTF-8" standalone="no"?>
<svg
   xmlns:dc="http://purl.org/dc/elements/1.1/"
   xmlns:cc="http://creativecommons.org/ns#"
   xmlns:rdf="http://www.w3.org/1999/02/22-rdf-syntax-ns#"
   xmlns:svg="http://www.w3.org/2000/svg"
   xmlns="http://www.w3.org/2000/svg"
   xmlns:sodipodi="http://sodipodi.sourceforge.net/DTD/sodipodi-0.dtd"
   xmlns:inkscape="http://www.inkscape.org/namespaces/inkscape"
   sodipodi:docname="image.svg"
   inkscape:version="1.0 (4035a4fb49, 2020-05-01)"
   id="svg8"
   version="1.1"
   viewBox="0 0 25 25"
   height="25mm"
   width="25mm">
  <defs
     id="defs2" />
  <sodipodi:namedview
     inkscape:window-maximized="1"
     inkscape:window-y="0"
     inkscape:window-x="0"
     inkscape:window-height="1011"
     inkscape:window-width="1920"
     showgrid="false"
     inkscape:document-rotation="0"
     inkscape:current-layer="layer1"
     inkscape:document-units="mm"
     inkscape:cy="66.93767"
     inkscape:cx="73.889717"
     inkscape:zoom="3.5242261"
     inkscape:pageshadow="2"
     inkscape:pageopacity="0.0"
     borderopacity="1.0"
     bordercolor="#666666"
     pagecolor="#ffffff"
     id="base" />
  <metadata
     id="metadata5">
    <rdf:RDF>
      <cc:Work
         rdf:about="">
        <dc:format>image/svg+xml</dc:format>
        <dc:type
           rdf:resource="http://purl.org/dc/dcmitype/StillImage" />
        <dc:title></dc:title>
      </cc:Work>
    </rdf:RDF>
  </metadata>
  <g
     id="layer1"
     inkscape:groupmode="layer"
     inkscape:label="Layer 1">
    <g
       id="g1010">
      <path
         transform="scale(0.26458333)"
         d="M 47.015625,0 A 47.244094,47.244094 0 0 0 0,47.244141 47.244094,47.244094 0 0 0 47.244141,94.488281 47.244094,47.244094 0 0 0 94.488281,47.244141 47.244094,47.244094 0 0 0 47.244141,0 47.244094,47.244094 0 0 0 47.015625,0 Z m 15.697266,22.689453 a 7.5590551,7.5590551 0 0 1 0.08203,0 7.5590551,7.5590551 0 0 1 7.558594,7.558594 7.5590551,7.5590551 0 0 1 -7.558594,7.558594 7.5590551,7.5590551 0 0 1 -7.558594,-7.558594 7.5590551,7.5590551 0 0 1 7.476564,-7.558594 z m -33.921875,0.289063 a 7.5590551,7.5590551 0 0 1 7.560546,7.560546 7.5590551,7.5590551 0 0 1 -7.560546,7.558594 7.5590551,7.5590551 0 0 1 -7.558594,-7.558594 7.5590551,7.5590551 0 0 1 7.558594,-7.560546 z M 79.746094,55.1875 C 80.993001,55.182987 69.4119,81.145128 48.199219,81.501953 25.896727,81.877124 12.521389,57.634128 12.855469,57.591797 12.836147,57.896688 27.627217,67.79897 46.898438,67.751953 65.820899,67.705779 79.746094,55.1875 79.746094,55.1875 Z"
         style="fill:#000000;stroke-width:1.07212"
         id="path12" />
    </g>
  </g>
</svg>
