<svg width="288" height="174" viewBox="0 0 288 174" fill="none" xmlns="http://www.w3.org/2000/svg">
<path fill-rule="evenodd" clip-rule="evenodd" d="M110.028 1.42304C110.644 1.12746 111.318 0.97403 112 0.97403H144V10.1501H128.505L148.638 22.2741L147.715 27.3557L149.856 29.0745L110.083 78.9709H144.001V88.147H108.058L148.067 166.342C148.813 167.801 148.727 169.548 147.841 170.926C146.955 172.304 145.404 173.102 143.772 173.02L52.3437 168.432C51.8648 168.408 51.3927 168.309 50.9446 168.137L2.94461 149.785C0.807083 148.968 -0.399567 146.691 0.120193 144.455L16.1202 75.6343C16.2881 74.912 16.6266 74.2468 17.1007 73.6915L55.9326 27.8408C56.3448 27.3495 56.8613 26.9432 57.4568 26.6573L110.028 1.42304ZM135.086 32.9154L100.859 75.8546L78.6112 43.2209L135.086 32.9154ZM70.7987 34.0495L67.9732 31.7809L80.9702 25.5424L70.7987 34.0495ZM92.8622 80.3749L71.2719 48.7051L49.7476 88.6963L92.8622 80.3749ZM39.8653 87.7503L57.1367 55.6607L27.854 77.0347L39.8653 87.7503ZM91.388 90.0037L46.3857 98.6894L55.04 150.804L91.388 90.0037ZM38.4268 106.578L46.7527 156.715L11.7841 143.345L38.4268 106.578ZM35.0085 95.6946L14.154 124.474L23.2779 85.2295L35.0085 95.6946ZM60.0384 37.1612L48.8694 50.349L63.3235 39.7987L60.0384 37.1612ZM100.261 92.996L136.314 163.458L60.4141 159.65L100.261 92.996ZM87.1229 32.3411L112.433 11.1729L133.524 23.8738L87.1229 32.3411Z" fill="url(#paint0_linear_1_24)"/>
<path fill-rule="evenodd" clip-rule="evenodd" d="M177.972 1.42304C177.356 1.12746 176.682 0.97403 176 0.97403H144V10.1501H159.495L139.362 22.2741L140.285 27.3558L138.145 29.0744L177.917 78.9709H143.999V88.147H179.942L139.933 166.342C139.187 167.801 139.273 169.548 140.159 170.926C141.045 172.304 142.596 173.102 144.228 173.02L235.656 168.432C236.135 168.408 236.607 168.309 237.055 168.137L285.055 149.785C287.193 148.968 288.4 146.691 287.88 144.455L271.88 75.6343C271.712 74.912 271.373 74.2468 270.899 73.6915L232.067 27.8402C231.655 27.3492 231.138 26.943 230.543 26.6573L177.972 1.42304ZM152.915 32.9155L187.141 75.8546L209.389 43.2209L152.915 32.9155ZM217.201 34.0495L220.027 31.7809L207.03 25.5424L217.201 34.0495ZM195.138 80.3749L216.728 48.7051L238.252 88.6963L195.138 80.3749ZM248.135 87.7503L230.863 55.6607L260.146 77.0347L248.135 87.7503ZM196.612 90.0037L241.614 98.6894L232.96 150.804L196.612 90.0037ZM249.573 106.578L241.247 156.715L276.216 143.345L249.573 106.578ZM252.991 95.6946L273.846 124.474L264.722 85.2295L252.991 95.6946ZM227.962 37.1611L239.131 50.349L224.677 39.7987L227.962 37.1611ZM187.739 92.996L151.686 163.458L227.586 159.65L187.739 92.996ZM200.877 32.3411L175.567 11.1729L154.476 23.8738L200.877 32.3411Z" fill="url(#paint1_linear_1_24)"/>
<defs>
<linearGradient id="paint0_linear_1_24" x1="74.928" y1="0.97403" x2="74.928" y2="173.026" gradientUnits="userSpaceOnUse">
<stop stop-color="#45A6FF"/>
<stop offset="1" stop-color="#4945FF"/>
</linearGradient>
<linearGradient id="paint1_linear_1_24" x1="213.072" y1="0.97403" x2="213.072" y2="173.026" gradientUnits="userSpaceOnUse">
<stop stop-color="#45A6FF"/>
<stop offset="1" stop-color="#4945FF"/>
</linearGradient>
</defs>
</svg>
