<?xml version="1.0" encoding="UTF-8"?>
<svg xmlns="http://www.w3.org/2000/svg" xmlns:xlink="http://www.w3.org/1999/xlink" width="90pt" height="96pt" viewBox="0 0 90 96" version="1.1">
<g id="surface1">
<path style=" stroke:none;fill-rule:nonzero;fill:rgb(0%,0%,0%);fill-opacity:1;" d="M 48.902344 0.0820312 C 47.96875 0.179688 46.5 0.503906 45.492188 0.839844 C 43.316406 1.558594 40.839844 2.992188 39.296875 4.417969 L 38.796875 4.882812 L 38.742188 4.621094 C 38.71875 4.46875 38.703125 3.832031 38.71875 3.1875 C 38.734375 2.550781 38.734375 2.023438 38.71875 2.023438 C 38.589844 2.023438 37.066406 2.902344 36.289062 3.414062 C 33.113281 5.527344 30.613281 8.484375 28.816406 12.269531 C 28.066406 13.851562 27.324219 16.011719 27.023438 17.511719 L 26.917969 18.039062 L 24.152344 18.015625 L 21.378906 18 L 17.945312 20.96875 L 14.507812 23.933594 L 14.289062 24.667969 L 14.066406 25.402344 L 12.242188 26.25 C 9.195312 27.667969 3.824219 30.328125 2.515625 31.066406 C 1.476562 31.648438 1.25 31.816406 1.054688 32.101562 C 0.683594 32.648438 0.46875 33.097656 0.25 33.800781 C 0.0742188 34.378906 0.0546875 34.597656 0.046875 35.550781 L 0.0390625 36.636719 L 2.046875 40.453125 C 3.394531 43.019531 4.105469 44.289062 4.203125 44.332031 C 4.289062 44.363281 5.023438 44.445312 5.832031 44.511719 C 9.121094 44.796875 15.082031 45.359375 15.113281 45.390625 C 15.136719 45.414062 15.234375 45.824219 15.332031 46.320312 C 15.4375 46.816406 15.546875 47.308594 15.566406 47.414062 L 15.621094 47.609375 L 10.765625 47.574219 L 5.902344 47.527344 L 5.992188 47.746094 C 6.296875 48.53125 7.5 51.988281 7.5 52.078125 C 7.5 52.140625 7.160156 53.136719 6.734375 54.300781 C 6.3125 55.460938 5.976562 56.421875 5.992188 56.429688 C 6.007812 56.445312 6.886719 56.511719 7.945312 56.578125 C 9.007812 56.648438 9.886719 56.707031 9.894531 56.722656 C 9.902344 56.730469 10.203125 57.644531 10.566406 58.761719 C 10.933594 59.871094 11.242188 60.800781 11.257812 60.816406 C 11.273438 60.832031 11.667969 60.503906 12.136719 60.082031 C 12.605469 59.671875 13.015625 59.324219 13.046875 59.324219 C 13.066406 59.324219 13.628906 60.050781 14.28125 60.945312 C 15.257812 62.273438 15.492188 62.542969 15.566406 62.460938 C 15.621094 62.40625 16.546875 61.34375 17.628906 60.105469 L 19.597656 57.839844 L 19.5625 57.457031 L 19.523438 57.074219 L 21.703125 57.074219 L 25.933594 52.753906 C 28.25 50.378906 30.152344 48.398438 30.152344 48.351562 C 30.152344 48.300781 29.863281 47.121094 29.515625 45.726562 L 28.886719 43.191406 L 29.121094 43.09375 C 29.25 43.042969 29.953125 42.789062 30.6875 42.523438 L 32.023438 42.050781 L 32.839844 39.292969 C 33.289062 37.777344 33.636719 36.472656 33.621094 36.398438 C 33.597656 36.324219 32.855469 34.648438 31.976562 32.675781 C 31.089844 30.699219 30.378906 29.078125 30.394531 29.0625 C 30.523438 28.957031 33.886719 27.066406 33.902344 27.089844 C 33.925781 27.105469 33.75 27.824219 33.523438 28.6875 L 33.105469 30.253906 L 34.667969 33.699219 L 36.21875 37.132812 L 33.75 43.835938 L 32.6875 44.226562 C 32.105469 44.4375 31.597656 44.625 31.5625 44.640625 C 31.523438 44.65625 31.742188 45.660156 32.046875 46.867188 C 32.507812 48.703125 32.582031 49.09375 32.507812 49.214844 C 32.453125 49.296875 30.113281 51.855469 27.296875 54.90625 C 22.3125 60.316406 22.175781 60.449219 21.9375 60.414062 C 21.8125 60.390625 21.484375 60.335938 21.210938 60.300781 L 20.71875 60.226562 L 20.386719 60.578125 C 19.347656 61.695312 17.257812 64.460938 16.195312 66.121094 C 13.1875 70.816406 11.460938 75.324219 10.796875 80.175781 C 10.628906 81.390625 10.566406 84.238281 10.675781 85.613281 C 10.953125 89.015625 11.960938 92.484375 13.460938 95.144531 C 13.894531 95.910156 14.015625 96.050781 14.015625 95.789062 C 14.015625 95.542969 14.605469 93.34375 14.910156 92.46875 C 16.21875 88.671875 18.523438 85.027344 21.476562 82.074219 L 22.613281 80.941406 L 22.25 80.386719 C 21.417969 79.117188 20.773438 77.632812 20.378906 76.066406 C 19.984375 74.476562 19.886719 73.640625 19.894531 71.699219 C 19.894531 69.96875 19.945312 69.335938 20.203125 67.988281 L 20.332031 67.3125 L 20.539062 68.324219 C 21.355469 72.40625 22.984375 76.261719 25.3125 79.648438 C 26.023438 80.683594 27.113281 82.066406 27.195312 82.035156 C 27.296875 81.996094 32.273438 76.058594 32.273438 75.976562 C 32.273438 75.9375 32.074219 75.636719 31.832031 75.308594 C 29.945312 72.796875 28.5625 69.699219 27.984375 66.683594 C 27.824219 65.886719 27.78125 65.363281 27.75 64.273438 L 27.71875 62.886719 L 28.296875 64.199219 C 31.289062 71.070312 34.933594 76.085938 38.871094 78.773438 C 39.546875 79.238281 41 79.988281 41.3125 80.039062 C 41.425781 80.0625 41.644531 79.550781 42.652344 76.988281 C 43.316406 75.300781 43.863281 73.882812 43.863281 73.835938 C 43.863281 73.792969 43.703125 73.621094 43.507812 73.460938 C 42.054688 72.261719 39.910156 70.078125 38.652344 68.519531 C 36.515625 65.878906 34.976562 63.066406 34.355469 60.636719 C 34.183594 59.941406 33.976562 58.582031 34.046875 58.523438 C 34.0625 58.5 34.304688 58.933594 34.574219 59.484375 C 37.1875 64.695312 41.296875 69.066406 46.347656 72.023438 C 49.203125 73.695312 52.628906 75.03125 55.683594 75.636719 C 56.8125 75.871094 57.046875 75.878906 57.046875 75.691406 C 57.046875 75.609375 57.234375 73.816406 57.460938 71.691406 C 57.6875 69.578125 57.863281 67.835938 57.855469 67.828125 C 57.847656 67.824219 57.554688 67.671875 57.203125 67.5 C 55.425781 66.621094 52.574219 64.972656 50.816406 63.800781 C 48.25 62.101562 46.554688 60.726562 44.613281 58.808594 C 43.121094 57.324219 42.265625 56.324219 41.417969 55.050781 C 40.953125 54.359375 40.074219 52.710938 40.074219 52.539062 C 40.074219 52.5 40.628906 53.011719 41.3125 53.671875 C 44.984375 57.246094 48.652344 60.039062 52.917969 62.511719 C 57.960938 65.445312 63.925781 67.648438 68.710938 68.363281 C 69.75 68.519531 69.726562 68.519531 69.589844 68.265625 C 69.410156 67.914062 69.097656 66.53125 68.984375 65.550781 C 68.789062 63.929688 68.703125 62.65625 68.660156 60.433594 C 68.621094 58.550781 68.597656 58.273438 68.492188 58.238281 C 68.425781 58.222656 67.945312 58.117188 67.425781 58.011719 C 59.007812 56.28125 51.6875 53.289062 46.734375 49.566406 C 45.175781 48.390625 43.695312 46.972656 42.675781 45.675781 C 42.257812 45.140625 41.710938 44.324219 41.78125 44.324219 C 41.804688 44.324219 42.21875 44.640625 42.710938 45.023438 C 49.742188 50.550781 57.339844 53.773438 66.515625 55.117188 C 69.113281 55.5 71.476562 55.710938 76.628906 56.023438 C 83.417969 56.4375 86.074219 56.820312 88.824219 57.75 C 90.128906 58.199219 90.015625 58.175781 89.960938 57.929688 C 89.863281 57.480469 89.066406 56.03125 88.492188 55.273438 C 87.074219 53.390625 84.492188 50.820312 81.734375 48.539062 L 81.082031 48 L 79.5 48 C 77.574219 48 73.425781 47.878906 71.515625 47.773438 C 61.46875 47.210938 51.9375 45.398438 47.3125 43.164062 C 46.4375 42.742188 45.695312 42.261719 45.78125 42.179688 C 45.796875 42.164062 46.007812 42.238281 46.257812 42.34375 C 48.097656 43.15625 50.703125 43.824219 53.675781 44.242188 C 57.734375 44.820312 59.925781 44.917969 70.523438 45 C 80.726562 45.074219 82.976562 45.15625 85.894531 45.53125 C 87.273438 45.703125 88.355469 45.90625 89.265625 46.15625 C 89.628906 46.253906 89.925781 46.3125 89.925781 46.28125 C 89.925781 46.253906 89.613281 45.675781 89.234375 44.992188 C 87.953125 42.703125 86.46875 40.621094 84.9375 38.953125 C 83.960938 37.898438 83.289062 37.28125 82.152344 36.441406 C 80.734375 35.390625 79.925781 35.03125 78.21875 34.6875 C 76.304688 34.304688 75.289062 34.238281 71.023438 34.238281 C 67.210938 34.238281 66.128906 34.273438 62.425781 34.546875 C 58.644531 34.816406 53.097656 35.386719 48.636719 35.960938 C 48 36.046875 51.097656 35.128906 53.296875 34.582031 C 62.378906 32.339844 72.757812 31.769531 82.878906 32.96875 C 84.710938 33.179688 88.195312 33.75 88.925781 33.945312 C 89.03125 33.976562 89.089844 33.960938 89.089844 33.890625 C 89.089844 33.710938 88.242188 31.6875 87.789062 30.796875 C 86.78125 28.808594 85.734375 27.335938 84.21875 25.808594 C 81.355469 22.914062 77.765625 21.210938 73.183594 20.578125 C 71.839844 20.390625 68.589844 20.390625 67.28125 20.578125 C 66.757812 20.648438 66.3125 20.722656 66.273438 20.746094 C 66.242188 20.765625 66.210938 20.761719 66.210938 20.722656 C 66.210938 20.632812 66.644531 20.363281 67.136719 20.136719 C 67.6875 19.890625 68.976562 19.605469 70.03125 19.507812 C 70.484375 19.460938 71.765625 19.425781 72.871094 19.425781 C 74.804688 19.425781 75.675781 19.46875 77.5625 19.65625 L 78.410156 19.738281 L 80.566406 18.554688 C 81.757812 17.902344 82.726562 17.347656 82.726562 17.316406 C 82.726562 17.203125 81.160156 15.984375 80.175781 15.328125 C 76.339844 12.765625 71.507812 11.308594 65.605469 10.941406 C 64.28125 10.859375 61.46875 10.898438 61.082031 10.996094 C 60.839844 11.0625 60.863281 10.933594 61.121094 10.785156 C 61.863281 10.351562 64.53125 9.898438 67.652344 9.675781 L 68.824219 9.585938 L 70.96875 8.347656 C 72.144531 7.65625 73.105469 7.078125 73.105469 7.050781 C 73.105469 6.960938 71.539062 6.433594 70.417969 6.148438 C 66.445312 5.144531 61.203125 5.167969 56.007812 6.226562 C 55.394531 6.34375 54.886719 6.433594 54.871094 6.425781 C 54.796875 6.34375 55.167969 6.03125 55.605469 5.8125 C 56.28125 5.476562 57.363281 5.160156 58.984375 4.835938 L 60.304688 4.566406 L 61.363281 3.765625 C 61.9375 3.328125 62.402344 2.953125 62.386719 2.941406 C 62.324219 2.878906 61.203125 2.625 60.417969 2.496094 C 59.371094 2.324219 55.371094 2.300781 54.089844 2.460938 C 51.976562 2.722656 49.554688 3.140625 48.621094 3.421875 C 48.273438 3.523438 48.597656 2.707031 49.273438 1.785156 C 49.460938 1.523438 49.871094 1.019531 50.183594 0.652344 L 50.757812 0 L 50.136719 0.0078125 C 49.789062 0.015625 49.234375 0.046875 48.902344 0.0820312 Z M 40.953125 11.761719 C 41.097656 11.859375 41.1875 12.097656 41.324219 12.742188 C 41.597656 14.09375 41.683594 14.796875 41.71875 16.3125 C 41.78125 18.660156 41.589844 20.101562 40.96875 21.9375 C 40.652344 22.898438 39.9375 24.335938 39.507812 24.914062 L 39.242188 25.273438 L 37.992188 25.273438 C 36.847656 25.273438 36.582031 25.230469 36.816406 25.085938 C 36.96875 24.996094 37.515625 23.828125 37.765625 23.070312 C 38.082031 22.109375 38.363281 20.761719 38.554688 19.273438 C 38.683594 18.277344 38.863281 16.304688 38.863281 15.878906 C 38.863281 15.78125 38.347656 16.085938 36.878906 17.078125 C 32.484375 20.023438 32.910156 19.761719 32.695312 19.621094 C 32.453125 19.46875 32.445312 19.214844 32.652344 18.773438 C 33.539062 16.824219 37.910156 12.652344 39.894531 11.859375 C 40.273438 11.707031 40.804688 11.65625 40.953125 11.761719 Z M 20.742188 26.453125 C 18.976562 28.5 16.332031 31.425781 16.289062 31.371094 C 15.992188 31.074219 14.03125 28.453125 14.074219 28.417969 C 14.105469 28.386719 15.21875 28.042969 16.554688 27.644531 C 17.886719 27.238281 19.386719 26.78125 19.886719 26.625 C 20.386719 26.46875 20.8125 26.332031 20.824219 26.332031 C 20.839844 26.324219 20.804688 26.386719 20.742188 26.453125 Z M 5.832031 34.980469 C 5.832031 35.011719 4.242188 39.121094 4.074219 39.523438 C 4 39.699219 3.910156 39.539062 3.066406 37.835938 C 2.554688 36.800781 2.144531 35.953125 2.144531 35.949219 C 2.160156 35.933594 5.703125 34.964844 5.78125 34.957031 C 5.8125 34.949219 5.832031 34.964844 5.832031 34.980469 Z M 5.832031 34.980469 "/>
</g>
</svg>
