<?xml version="1.0" encoding="UTF-8"?>
<svg xmlns="http://www.w3.org/2000/svg" xmlns:xlink="http://www.w3.org/1999/xlink" width="90pt" height="109pt" viewBox="0 0 90 109" version="1.1">
<g id="surface1">
<path style=" stroke:none;fill-rule:nonzero;fill:rgb(0%,0%,0%);fill-opacity:1;" d="M 45.390625 0.0585938 C 42.742188 0.265625 40.316406 0.851562 38.441406 1.746094 C 35.648438 3.066406 33.722656 4.957031 32.363281 7.707031 C 31.28125 9.894531 30.691406 12.175781 30.410156 15.328125 C 30.273438 16.75 30.300781 20.941406 30.453125 23.164062 C 30.667969 26.449219 30.703125 28.980469 30.539062 30.402344 C 30.070312 34.421875 29.117188 37.324219 27.21875 40.515625 C 26.503906 41.710938 25.921875 42.511719 24.519531 44.253906 C 17.839844 52.53125 13.480469 60.988281 12.347656 67.871094 C 12.050781 69.707031 11.957031 71.421875 12.085938 73.074219 L 12.195312 74.527344 L 11.648438 75.089844 C 11.34375 75.40625 10.644531 76.273438 10.089844 77.023438 C 8.472656 79.210938 8.148438 79.449219 5.664062 80.34375 C 3.578125 81.09375 2.863281 81.503906 1.96875 82.480469 C 0.578125 84 0.332031 85.496094 0.851562 89.117188 C 1.011719 90.257812 1.105469 91.253906 1.105469 91.859375 C 1.105469 92.726562 1.082031 92.898438 0.808594 93.714844 C 0.222656 95.460938 0.0507812 96.320312 0.0507812 97.589844 C 0.0429688 98.457031 0.0859375 98.847656 0.195312 99.207031 C 0.648438 100.636719 1.6875 101.625 3.339844 102.195312 C 4.300781 102.519531 5.476562 102.75 7.511719 102.996094 C 13.6875 103.753906 14.75 104.011719 17.628906 105.382812 C 21.070312 107.023438 23.230469 107.613281 26.078125 107.695312 C 27.105469 107.730469 27.90625 107.707031 28.367188 107.644531 C 31.144531 107.238281 33.367188 105.816406 34.535156 103.703125 L 34.847656 103.125 L 35.359375 103.125 C 35.980469 103.125 36.519531 103.046875 39.132812 102.570312 C 44.226562 101.640625 46.125 101.558594 49.777344 102.101562 C 52.460938 102.492188 53.710938 102.613281 55.347656 102.65625 L 56.820312 102.691406 L 57.015625 103.242188 C 57.554688 104.777344 58.964844 106.625 60.296875 107.527344 C 64.1875 110.167969 69.695312 109.171875 74.304688 104.996094 C 74.679688 104.664062 75.460938 103.847656 76.050781 103.199219 C 78.101562 100.917969 79.335938 100.074219 84.0625 97.71875 C 86.636719 96.429688 87.128906 96.160156 88.03125 95.484375 C 89.011719 94.753906 89.558594 94.039062 89.847656 93.085938 C 90.382812 91.363281 89.609375 89.398438 87.316406 86.671875 C 86.140625 85.257812 85.914062 84.746094 85.246094 81.960938 C 85.0625 81.164062 84.804688 80.207031 84.6875 79.835938 C 84.132812 78.121094 83.238281 77 81.816406 76.25 C 81.363281 76.011719 81.246094 75.910156 81.289062 75.804688 C 81.457031 75.378906 82.019531 72.960938 82.148438 72.085938 C 82.34375 70.808594 82.371094 67.230469 82.199219 66.039062 C 81.636719 62.265625 80.71875 59.355469 78.902344 55.648438 C 77.082031 51.9375 74.246094 47.6875 71.152344 44.027344 C 69.867188 42.5 67.910156 39.921875 66.9375 38.464844 C 64.9375 35.484375 63.863281 32.777344 63.53125 29.933594 C 63.488281 29.507812 63.445312 27.25 63.445312 24.867188 C 63.445312 18.375 63.207031 15.539062 62.382812 12.195312 C 60.535156 4.691406 56.222656 0.730469 49.222656 0.09375 C 48.3125 0.0078125 46.277344 -0.0078125 45.390625 0.0585938 Z M 51.039062 15.3125 C 52.894531 15.976562 54.386719 17.910156 54.886719 20.308594 C 55.074219 21.203125 55.082031 22.992188 54.894531 23.808594 C 54.675781 24.839844 54.027344 26.347656 53.566406 26.890625 L 53.40625 27.089844 L 52.230469 26.628906 C 51.582031 26.371094 50.96875 26.132812 50.867188 26.109375 L 50.679688 26.050781 L 50.925781 25.648438 C 51.746094 24.304688 51.839844 22.082031 51.140625 20.691406 C 50.492188 19.414062 49.496094 18.957031 48.476562 19.464844 C 47.957031 19.722656 47.605469 20.097656 47.265625 20.777344 C 46.882812 21.535156 46.753906 22.140625 46.753906 23.179688 C 46.753906 23.683594 46.738281 24.097656 46.71875 24.097656 C 46.703125 24.097656 46.449219 23.988281 46.148438 23.851562 C 45.851562 23.714844 45.324219 23.519531 44.984375 23.417969 C 44.652344 23.316406 44.34375 23.195312 44.320312 23.152344 C 44.207031 22.976562 44.277344 20.878906 44.414062 20.226562 C 44.785156 18.4375 45.800781 16.785156 47.0625 15.925781 C 47.554688 15.582031 48.261719 15.261719 48.730469 15.15625 C 49.308594 15.039062 50.476562 15.117188 51.039062 15.3125 Z M 37.046875 16.273438 C 37.453125 16.375 38.066406 16.777344 38.503906 17.21875 C 39.652344 18.394531 40.367188 20.480469 40.367188 22.660156 L 40.367188 23.230469 L 40.050781 23.339844 C 39.6875 23.453125 38.410156 24.074219 38.289062 24.191406 C 38.128906 24.335938 38.109375 24.261719 38.101562 23.476562 C 38.078125 21.09375 36.578125 19.40625 35.394531 20.4375 C 34.21875 21.476562 34.3125 24.816406 35.546875 25.964844 C 35.667969 26.082031 35.769531 26.203125 35.769531 26.238281 C 35.769531 26.304688 34.601562 27.164062 34.5 27.164062 C 34.320312 27.164062 33.765625 26.382812 33.375 25.589844 C 32.753906 24.3125 32.582031 23.503906 32.574219 21.84375 C 32.574219 20.683594 32.609375 20.371094 32.769531 19.765625 C 33.171875 18.300781 33.816406 17.253906 34.703125 16.648438 C 35.425781 16.144531 36.117188 16.035156 37.046875 16.273438 Z M 55.476562 34.453125 C 56.34375 37.511719 57.460938 40.703125 58.976562 44.492188 C 60.449219 48.164062 61.121094 49.65625 63.019531 53.433594 C 64.953125 57.292969 65.644531 58.878906 66.511719 61.484375 C 67.039062 63.050781 67.78125 65.824219 67.925781 66.71875 L 67.976562 67.070312 L 68.921875 67.179688 C 70.496094 67.367188 70.34375 67.410156 70.566406 66.710938 C 71.734375 63.015625 71.179688 58.765625 68.972656 54.433594 C 68.011719 52.550781 66.9375 51.015625 65.550781 49.535156 C 64.621094 48.546875 64.410156 48.214844 64.585938 48.035156 C 64.699219 47.933594 64.757812 47.953125 65.046875 48.179688 C 65.898438 48.863281 67.621094 50.921875 68.769531 52.667969 C 70.898438 55.878906 72.117188 58.886719 72.652344 62.292969 C 72.824219 63.339844 72.796875 66.03125 72.609375 67.0625 C 72.523438 67.527344 72.449219 67.953125 72.4375 68.003906 C 72.4375 68.066406 73.042969 68.414062 73.792969 68.789062 C 76.859375 70.332031 78.476562 71.734375 78.964844 73.269531 C 79.097656 73.675781 79.125 73.941406 79.089844 74.511719 C 79.03125 75.5 79.015625 75.535156 78.519531 75.535156 L 78.109375 75.535156 L 78.152344 74.828125 C 78.1875 74.246094 78.164062 74.042969 78.007812 73.632812 C 77.617188 72.605469 76.230469 71.445312 74.125 70.425781 C 70.90625 68.839844 68.574219 68.457031 66.972656 69.230469 C 66 69.699219 65.429688 70.542969 65.175781 71.898438 L 65.039062 72.605469 L 64.347656 72.960938 C 63.003906 73.652344 62.074219 74.621094 61.359375 76.085938 C 60.347656 78.164062 59.921875 80.582031 59.613281 86.042969 C 59.503906 88 59.171875 89.617188 58.277344 92.609375 L 58.125 93.117188 L 57.144531 93.773438 C 55.976562 94.558594 53.730469 95.722656 52.375 96.261719 C 49.574219 97.351562 47.019531 97.84375 44.183594 97.84375 C 40.664062 97.835938 37.539062 96.949219 34.507812 95.09375 C 33.851562 94.703125 33.75 94.589844 33.214844 93.808594 C 32.890625 93.332031 32.199219 92.402344 31.679688 91.730469 C 31.167969 91.058594 30.742188 90.496094 30.742188 90.46875 C 30.742188 90.453125 30.90625 90.4375 31.109375 90.4375 C 31.585938 90.4375 32.457031 90.222656 32.882812 90 C 34.125 89.371094 34.652344 88.050781 34.285156 86.492188 C 34.089844 85.667969 33.445312 84.355469 32.738281 83.367188 C 31.996094 82.328125 29.671875 80.003906 28.316406 78.957031 C 27.753906 78.523438 26.339844 77.527344 25.164062 76.742188 C 23.285156 75.5 22.925781 75.21875 22.046875 74.351562 C 20.652344 72.953125 19.867188 71.71875 19.324219 70.058594 C 17.773438 65.316406 19.304688 59.4375 24.246094 51.152344 C 24.6875 50.421875 25.082031 49.816406 25.132812 49.816406 C 25.394531 49.816406 25.039062 50.660156 23.386719 53.945312 C 22.628906 55.445312 21.871094 57.0625 21.691406 57.539062 C 19.945312 62.367188 19.816406 66.25 21.289062 69.605469 C 21.613281 70.332031 22.464844 71.785156 22.578125 71.785156 C 22.601562 71.785156 22.652344 71.257812 22.679688 70.613281 C 22.824219 67.605469 23.667969 63.722656 24.910156 60.375 C 25.363281 59.15625 25.890625 57.964844 27.378906 54.753906 C 31.511719 45.847656 33.339844 40.476562 33.816406 35.851562 C 33.878906 35.3125 33.929688 34.863281 33.9375 34.847656 C 33.996094 34.777344 35.980469 36.15625 36.558594 36.667969 C 37.835938 37.792969 38.519531 38.3125 39.082031 38.609375 C 41.226562 39.734375 43.859375 39.65625 46.34375 38.40625 C 46.710938 38.21875 47.582031 37.714844 48.269531 37.28125 C 49.140625 36.738281 49.820312 36.386719 50.492188 36.132812 C 52.375 35.417969 53.636719 34.625 54.5625 33.585938 C 54.835938 33.289062 55.058594 33.058594 55.066406 33.066406 C 55.074219 33.074219 55.253906 33.703125 55.476562 34.453125 Z M 15.558594 74.476562 C 15.535156 74.503906 15.457031 74.511719 15.398438 74.484375 C 15.328125 74.460938 15.355469 74.433594 15.449219 74.433594 C 15.542969 74.425781 15.59375 74.453125 15.558594 74.476562 Z M 14.683594 74.714844 C 14.179688 74.902344 13.8125 75.117188 13.371094 75.484375 C 13.207031 75.617188 13.21875 75.601562 13.414062 75.378906 C 13.695312 75.074219 14.742188 74.511719 15.023438 74.519531 C 15.117188 74.519531 14.972656 74.605469 14.683594 74.714844 Z M 19.945312 76.445312 C 20.304688 76.8125 20.703125 77.246094 20.832031 77.40625 C 20.957031 77.570312 20.746094 77.371094 20.363281 76.964844 C 19.980469 76.554688 19.46875 76.042969 19.222656 75.824219 C 18.972656 75.601562 18.898438 75.507812 19.042969 75.601562 C 19.179688 75.695312 19.585938 76.078125 19.945312 76.445312 Z M 4.164062 82.550781 C 4.148438 82.566406 3.960938 82.710938 3.746094 82.875 C 3.320312 83.199219 3.058594 83.359375 3.195312 83.222656 C 3.328125 83.078125 4.097656 82.515625 4.148438 82.515625 C 4.179688 82.515625 4.179688 82.535156 4.164062 82.550781 Z M 2.105469 85.726562 C 2.078125 85.8125 2.0625 85.761719 2.0625 85.625 C 2.0625 85.480469 2.078125 85.421875 2.105469 85.472656 C 2.121094 85.53125 2.121094 85.648438 2.105469 85.726562 Z M 34.039062 99.054688 C 34.015625 99.121094 33.988281 99.097656 33.988281 99.003906 C 33.980469 98.910156 34.003906 98.859375 34.03125 98.890625 C 34.054688 98.917969 34.066406 98.992188 34.039062 99.054688 Z M 4.214844 100.851562 C 4.640625 100.96875 5.136719 101.097656 5.324219 101.132812 C 5.511719 101.164062 5.613281 101.207031 5.550781 101.234375 C 5.355469 101.292969 3.234375 100.714844 3.234375 100.59375 C 3.234375 100.570312 3.289062 100.570312 3.347656 100.59375 C 3.398438 100.613281 3.796875 100.730469 4.214844 100.851562 Z M 5.988281 101.308594 C 5.925781 101.328125 5.824219 101.328125 5.773438 101.308594 C 5.714844 101.285156 5.757812 101.269531 5.875 101.269531 C 5.996094 101.269531 6.039062 101.285156 5.988281 101.308594 Z M 33.246094 103.140625 C 32.90625 103.804688 32.105469 104.65625 31.46875 105.03125 C 31.28125 105.140625 31.304688 105.109375 31.554688 104.902344 C 32.140625 104.425781 32.738281 103.78125 33.035156 103.3125 C 33.367188 102.808594 33.460938 102.734375 33.246094 103.140625 Z M 33.246094 103.140625 "/>
</g>
</svg>
