<?xml version="1.0" encoding="UTF-8"?>
<svg xmlns="http://www.w3.org/2000/svg" xmlns:xlink="http://www.w3.org/1999/xlink" width="90pt" height="71pt" viewBox="0 0 90 71" version="1.1">
<g id="surface1">
<path style=" stroke:none;fill-rule:nonzero;fill:rgb(0%,0%,0%);fill-opacity:1;" d="M 55.582031 2.335938 C 51.484375 2.757812 47.59375 4.621094 44.984375 7.402344 C 43.902344 8.550781 43.425781 9.285156 42.59375 11.039062 C 41.96875 12.359375 41.695312 13.136719 41.457031 14.25 C 40.976562 16.496094 41.027344 18.308594 41.652344 22.152344 C 41.925781 23.804688 41.914062 24.042969 41.441406 25.375 C 40.710938 27.449219 40.21875 28.28125 38.410156 30.546875 C 35.523438 34.160156 33.335938 36.839844 32.914062 37.269531 C 31.726562 38.5 30.707031 39.195312 28.441406 40.320312 C 26.246094 41.398438 25.875 41.738281 25.875 42.648438 C 25.875 43.148438 26.101562 43.796875 26.347656 44 C 26.65625 44.261719 28.027344 44.902344 28.785156 45.152344 C 30.355469 45.644531 31.675781 45.855469 33.242188 45.863281 C 35.15625 45.871094 36.625 45.46875 37.792969 44.628906 L 38.144531 44.375 L 38.1875 44.566406 C 38.214844 44.679688 38.234375 44.980469 38.242188 45.242188 C 38.257812 45.984375 38.445312 47.691406 38.644531 48.804688 C 39.199219 51.972656 40.234375 54.796875 41.433594 56.402344 C 41.625 56.664062 42.109375 57.199219 42.496094 57.601562 L 43.214844 58.328125 L 42.800781 58.949219 C 42.574219 59.296875 42.179688 60 41.925781 60.515625 C 41.519531 61.335938 41.464844 61.496094 41.457031 61.863281 C 41.449219 62.363281 41.589844 62.597656 42.03125 62.84375 C 42.503906 63.105469 43.171875 63.210938 44.773438 63.261719 L 46.273438 63.304688 L 46.609375 63.734375 C 47.074219 64.3125 47.699219 64.90625 48.113281 65.152344 C 48.628906 65.449219 49.273438 65.476562 49.824219 65.230469 C 50.28125 65.015625 50.675781 64.722656 51.300781 64.105469 L 51.734375 63.691406 L 52.460938 64.078125 C 54.757812 65.308594 55.960938 65.152344 56.242188 63.605469 C 56.398438 62.761719 56.300781 61.703125 55.996094 60.855469 C 55.898438 60.578125 55.8125 60.3125 55.808594 60.253906 C 55.800781 60.191406 55.984375 60.121094 56.425781 60.03125 C 56.777344 59.953125 57.101562 59.882812 57.148438 59.859375 C 57.226562 59.832031 58.738281 60.09375 58.835938 60.148438 C 58.851562 60.15625 58.796875 60.296875 58.710938 60.460938 C 58.429688 61.015625 58.289062 61.75 58.289062 62.710938 C 58.289062 63.199219 58.324219 63.710938 58.359375 63.851562 C 58.472656 64.253906 58.71875 64.574219 59.0625 64.75 C 59.660156 65.058594 60.636719 64.839844 62.09375 64.070312 L 62.84375 63.671875 L 63.507812 64.304688 C 64.355469 65.125 64.8125 65.363281 65.496094 65.363281 C 66.296875 65.363281 66.894531 64.96875 67.878906 63.796875 L 68.308594 63.28125 L 69.679688 63.246094 C 71.472656 63.199219 72.160156 63.085938 72.640625 62.765625 C 72.992188 62.535156 73.140625 62.195312 73.089844 61.765625 C 73.039062 61.320312 72.289062 59.789062 71.664062 58.84375 L 71.210938 58.175781 L 71.417969 58.027344 C 73 56.875 74.058594 55.226562 74.960938 52.523438 C 75.710938 50.257812 76.253906 47.210938 76.296875 44.988281 C 76.304688 44.648438 76.324219 44.375 76.351562 44.375 C 76.375 44.375 76.554688 44.488281 76.746094 44.628906 C 77.90625 45.460938 79.347656 45.855469 81.238281 45.855469 C 82.847656 45.855469 83.96875 45.6875 85.605469 45.1875 C 86.640625 44.867188 87.917969 44.261719 88.214844 43.9375 C 88.488281 43.648438 88.664062 43.132812 88.664062 42.625 C 88.664062 41.742188 88.277344 41.398438 86.105469 40.320312 C 83.011719 38.789062 82.214844 38.132812 79.753906 35.0625 C 79.03125 34.152344 77.863281 32.707031 77.167969 31.851562 C 74.3125 28.339844 73.863281 27.613281 73.027344 25.191406 C 72.617188 24.015625 72.613281 23.734375 72.949219 21.699219 C 73.34375 19.253906 73.363281 19.027344 73.363281 17.355469 C 73.363281 15.308594 73.160156 14.09375 72.546875 12.417969 C 72.261719 11.625 71.375 9.835938 70.960938 9.207031 C 69.027344 6.292969 65.109375 3.710938 61.101562 2.722656 C 60.695312 2.625 60.046875 2.492188 59.660156 2.433594 C 58.800781 2.300781 56.445312 2.242188 55.582031 2.335938 Z M 55.582031 2.335938 "/>
</g>
</svg>
