<?xml version="1.0" encoding="UTF-8"?>
<svg xmlns="http://www.w3.org/2000/svg" xmlns:xlink="http://www.w3.org/1999/xlink" width="90pt" height="109pt" viewBox="0 0 90 109" version="1.1">
<g id="surface1">
<path style=" stroke:none;fill-rule:nonzero;fill:rgb(0%,0%,0%);fill-opacity:1;" d="M 44.941406 0.09375 C 38.84375 0.628906 34.609375 3.175781 32.363281 7.664062 C 31.3125 9.75 30.660156 12.304688 30.402344 15.285156 C 30.257812 16.980469 30.300781 20.90625 30.496094 24.109375 C 30.703125 27.53125 30.675781 29.539062 30.402344 31.378906 C 29.960938 34.359375 29.277344 36.539062 28.078125 38.917969 C 27.074219 40.890625 26.527344 41.683594 23.734375 45.234375 C 20.59375 49.238281 17.925781 53.402344 15.925781 57.4375 C 12.902344 63.5625 11.675781 68.695312 12.101562 73.523438 L 12.1875 74.527344 L 11.648438 75.097656 C 11.351562 75.40625 10.636719 76.28125 10.066406 77.039062 C 9.488281 77.808594 8.839844 78.609375 8.609375 78.835938 C 8.089844 79.355469 7.375 79.730469 5.628906 80.378906 C 3.609375 81.136719 2.988281 81.476562 2.171875 82.304688 C 0.570312 83.90625 0.273438 85.386719 0.808594 89.03125 C 0.988281 90.179688 1.054688 90.980469 1.054688 91.796875 C 1.054688 92.921875 1.046875 92.972656 0.707031 94.011719 C -0.410156 97.402344 -0.214844 99.660156 1.328125 101.0625 C 2.546875 102.1875 4.046875 102.628906 8.21875 103.125 C 11.503906 103.515625 12.742188 103.71875 14.351562 104.144531 C 15.5 104.453125 15.875 104.597656 17.96875 105.566406 C 19.722656 106.386719 20.59375 106.726562 21.835938 107.085938 C 25.421875 108.113281 28.835938 108.003906 31.253906 106.785156 C 32.71875 106.054688 33.785156 105.058594 34.492188 103.761719 C 34.652344 103.480469 34.78125 103.242188 34.789062 103.234375 C 34.796875 103.21875 35.242188 103.175781 35.777344 103.125 C 36.3125 103.082031 37.574219 102.894531 38.578125 102.707031 C 41.976562 102.085938 42.804688 101.964844 44.582031 101.839844 C 46.25 101.726562 46.863281 101.761719 50.117188 102.195312 C 53.140625 102.585938 54.332031 102.699219 55.808594 102.699219 C 56.675781 102.699219 56.890625 102.722656 56.890625 102.816406 C 56.890625 103.046875 57.390625 104.171875 57.800781 104.851562 C 58.300781 105.695312 59.605469 107.074219 60.378906 107.59375 C 61.070312 108.054688 61.886719 108.429688 62.851562 108.726562 C 63.523438 108.933594 63.691406 108.949219 65.191406 108.949219 C 66.75 108.957031 66.84375 108.949219 67.816406 108.683594 C 70.921875 107.832031 73.324219 106.25 76.085938 103.21875 C 77.371094 101.8125 78.496094 100.851562 79.898438 99.980469 C 80.375 99.675781 82.140625 98.738281 83.808594 97.886719 C 85.476562 97.035156 87.164062 96.125 87.554688 95.867188 C 88.542969 95.214844 89.257812 94.4375 89.660156 93.613281 C 89.957031 92.980469 89.972656 92.90625 89.972656 92.097656 C 89.964844 90.46875 89.300781 89.089844 87.394531 86.773438 C 86.125 85.242188 86.007812 84.960938 85.257812 81.953125 C 84.582031 79.273438 84.207031 78.378906 83.367188 77.457031 C 82.941406 76.988281 81.757812 76.128906 81.542969 76.128906 C 81.261719 76.128906 81.261719 75.917969 81.550781 74.902344 C 82.582031 71.308594 82.617188 67.128906 81.628906 63.058594 C 80.171875 57.027344 76.9375 51.121094 71.324219 44.238281 C 67.875 40.007812 66.382812 37.886719 65.234375 35.554688 C 64.425781 33.910156 63.921875 32.375 63.617188 30.65625 C 63.546875 30.308594 63.488281 28.066406 63.445312 24.523438 C 63.378906 19.101562 63.308594 17.660156 63.019531 15.566406 C 61.667969 5.832031 57.230469 0.84375 49.242188 0.0859375 C 48.210938 -0.0078125 46.066406 -0.0078125 44.941406 0.09375 Z M 51.15625 15.355469 C 52.578125 15.933594 53.660156 17.066406 54.367188 18.71875 C 54.894531 19.945312 54.972656 20.394531 54.964844 22.140625 C 54.964844 23.613281 54.945312 23.765625 54.726562 24.484375 C 54.46875 25.316406 53.949219 26.371094 53.585938 26.816406 L 53.355469 27.089844 L 52.929688 26.910156 C 52.699219 26.808594 52.214844 26.609375 51.863281 26.484375 C 51.515625 26.355469 51.113281 26.203125 50.988281 26.152344 L 50.75 26.058594 L 51.132812 25.5625 C 51.589844 24.976562 51.746094 24.574219 51.863281 23.640625 C 52 22.558594 51.753906 21.210938 51.285156 20.4375 C 51.070312 20.097656 50.5625 19.585938 50.289062 19.441406 C 49.914062 19.238281 49.164062 19.261719 48.746094 19.476562 C 47.707031 20.019531 47.070312 21.398438 47.0625 23.144531 C 47.050781 23.964844 47.035156 24.097656 46.925781 24.066406 C 45.339844 23.539062 44.632812 23.296875 44.480469 23.238281 C 44.292969 23.171875 44.285156 23.136719 44.285156 21.9375 C 44.285156 20.445312 44.488281 19.5 45.101562 18.242188 C 45.453125 17.515625 45.605469 17.3125 46.320312 16.605469 C 47.546875 15.394531 48.371094 15.046875 49.863281 15.105469 C 50.433594 15.132812 50.773438 15.199219 51.15625 15.355469 Z M 36.621094 16.1875 C 36.917969 16.230469 37.351562 16.375 37.582031 16.496094 C 38.179688 16.828125 38.988281 17.730469 39.394531 18.523438 C 40.070312 19.816406 40.308594 20.855469 40.265625 22.292969 L 40.238281 23.257812 L 39.542969 23.546875 C 39.148438 23.699219 38.707031 23.910156 38.542969 24.003906 C 38.390625 24.109375 38.238281 24.183594 38.222656 24.183594 C 38.195312 24.183594 38.152344 23.777344 38.128906 23.265625 C 38.078125 22.25 37.890625 21.605469 37.464844 20.929688 C 36.796875 19.902344 35.820312 19.808594 35.171875 20.710938 C 34.773438 21.261719 34.628906 21.867188 34.628906 22.949219 C 34.636719 24.253906 34.96875 25.222656 35.65625 25.980469 L 35.863281 26.203125 L 35.164062 26.730469 L 34.457031 27.25 L 34.21875 26.96875 C 33.808594 26.507812 33.308594 25.613281 33.042969 24.875 C 32.277344 22.789062 32.378906 20.121094 33.289062 18.324219 C 33.828125 17.253906 34.703125 16.453125 35.582031 16.214844 C 36.082031 16.078125 35.972656 16.078125 36.621094 16.1875 Z M 65.96875 49.117188 C 67.195312 50.4375 68.34375 51.917969 69.167969 53.257812 C 69.527344 53.828125 69.550781 53.902344 69.382812 53.902344 C 69.3125 53.902344 69.195312 53.980469 69.109375 54.074219 C 69.023438 54.167969 68.929688 54.246094 68.898438 54.246094 C 68.871094 54.246094 68.761719 54.074219 68.660156 53.859375 C 68.078125 52.667969 66.894531 51.015625 65.636719 49.636719 C 65.15625 49.117188 64.699219 48.589844 64.613281 48.453125 C 64.476562 48.234375 64.476562 48.207031 64.597656 48.078125 C 64.722656 47.960938 64.757812 47.960938 64.96875 48.121094 C 65.105469 48.222656 65.558594 48.667969 65.96875 49.117188 Z M 25.070312 50.378906 C 24.996094 50.609375 24.347656 51.960938 23.640625 53.394531 C 22.585938 55.496094 22.125 56.484375 21.757812 57.371094 C 21.734375 57.4375 21.128906 57.082031 21.121094 57.003906 C 21.113281 56.714844 23.34375 52.574219 24.570312 50.589844 C 25.097656 49.738281 25.320312 49.644531 25.070312 50.378906 Z M 25.070312 50.378906 "/>
</g>
</svg>
