<?xml version="1.0" encoding="UTF-8"?>
<svg xmlns="http://www.w3.org/2000/svg" xmlns:xlink="http://www.w3.org/1999/xlink" width="90pt" height="92pt" viewBox="0 0 90 92" version="1.1">
<g id="surface1">
<path style=" stroke:none;fill-rule:nonzero;fill:rgb(0%,0%,0%);fill-opacity:1;" d="M 42.75 2.308594 C 36.964844 2.71875 31.800781 4.859375 27.660156 8.582031 C 23.578125 12.246094 20.652344 17.582031 19.910156 22.710938 C 19.828125 23.257812 19.734375 24.515625 19.691406 25.585938 C 19.429688 31.960938 18.539062 35.253906 16.109375 38.882812 C 14.484375 41.292969 12.269531 43.492188 8.652344 46.289062 C 7.066406 47.515625 6.144531 48.300781 4.972656 49.441406 C 3.359375 51.015625 2.292969 52.367188 1.664062 53.65625 C 1.207031 54.589844 1.0625 55.148438 1.101562 55.855469 C 1.144531 56.535156 1.316406 56.847656 1.796875 57.082031 C 2.085938 57.226562 2.238281 57.25 2.859375 57.242188 C 4.191406 57.226562 5.363281 56.738281 7.636719 55.273438 C 8.898438 54.453125 10.148438 53.785156 11.367188 53.273438 C 12.089844 52.972656 13.710938 52.398438 13.855469 52.398438 C 13.914062 52.398438 13.9375 52.761719 13.941406 53.640625 C 13.988281 59.253906 16.492188 66.347656 20.320312 71.71875 C 20.914062 72.542969 20.929688 72.472656 20.191406 72.664062 C 20.015625 72.714844 19.546875 72.882812 19.148438 73.039062 C 15.925781 74.3125 13.785156 76.136719 12.625 78.59375 C 11.902344 80.148438 11.625 81.808594 11.910156 83 C 12.25 84.425781 13.445312 85.558594 15.027344 85.960938 C 15.570312 86.105469 15.882812 86.105469 27.546875 86.105469 L 39.5 86.105469 L 40.078125 85.824219 C 40.386719 85.675781 40.808594 85.429688 41.003906 85.292969 C 41.199219 85.148438 41.386719 85.050781 41.410156 85.0625 C 41.472656 85.105469 42.011719 84.554688 42.03125 84.425781 C 42.039062 84.367188 42.105469 84.246094 42.175781 84.152344 L 42.300781 83.984375 L 44.839844 84 L 47.375 84.015625 L 47.578125 84.28125 C 47.6875 84.425781 47.757812 84.566406 47.742188 84.597656 C 47.699219 84.660156 48.113281 85.050781 48.242188 85.070312 C 48.300781 85.078125 48.519531 85.214844 48.734375 85.378906 C 48.953125 85.539062 49.402344 85.796875 49.742188 85.957031 L 50.351562 86.242188 L 62.332031 86.207031 C 74.074219 86.171875 74.320312 86.164062 74.820312 86.019531 C 76.304688 85.597656 77.367188 84.632812 77.773438 83.339844 C 78.191406 81.996094 77.789062 79.804688 76.800781 78.09375 C 76.265625 77.164062 75.933594 76.742188 75.109375 75.929688 C 73.746094 74.59375 71.835938 73.507812 69.484375 72.746094 L 68.992188 72.578125 L 69.289062 72.175781 C 72.351562 67.980469 74.507812 63.078125 75.5 58.109375 C 75.839844 56.378906 75.96875 55.230469 75.96875 53.75 C 75.976562 52.761719 76 52.398438 76.0625 52.398438 C 76.230469 52.398438 78.097656 53.074219 78.980469 53.453125 C 80.148438 53.957031 81.042969 54.453125 82.542969 55.421875 C 84.578125 56.746094 85.800781 57.242188 87.089844 57.25 C 87.683594 57.25 87.828125 57.226562 88.140625 57.070312 C 88.878906 56.703125 89.042969 55.769531 88.609375 54.46875 C 88.117188 53.007812 87.125 51.640625 85.136719 49.660156 C 83.609375 48.140625 83.171875 47.761719 80.972656 46.042969 C 79.003906 44.503906 77.886719 43.535156 76.613281 42.242188 C 72.269531 37.8125 70.628906 33.753906 70.292969 26.578125 C 70.136719 23.058594 70.054688 22.390625 69.570312 20.519531 C 68.144531 14.972656 64.417969 9.726562 59.582031 6.476562 C 54.851562 3.292969 49.089844 1.863281 42.75 2.308594 Z M 41.988281 84.476562 C 41.988281 84.488281 41.851562 84.625 41.683594 84.777344 L 41.375 85.0625 L 41.664062 84.753906 C 41.921875 84.476562 41.988281 84.417969 41.988281 84.476562 Z M 48.039062 84.828125 L 48.25 85.0625 L 48.019531 84.855469 C 47.886719 84.734375 47.78125 84.632812 47.78125 84.617188 C 47.78125 84.5625 47.835938 84.609375 48.039062 84.828125 Z M 48.039062 84.828125 "/>
</g>
</svg>
