<?xml version="1.0" encoding="UTF-8"?>
<svg xmlns="http://www.w3.org/2000/svg" xmlns:xlink="http://www.w3.org/1999/xlink" width="89pt" height="76pt" viewBox="0 0 89 76" version="1.1">
<g id="surface1">
<path style=" stroke:none;fill-rule:nonzero;fill:rgb(0%,0%,0%);fill-opacity:1;" d="M 39.460938 0.0976562 C 38.980469 0.210938 37.796875 0.644531 37.339844 0.875 C 36.335938 1.394531 35.273438 2.390625 34.507812 3.539062 C 34.355469 3.769531 34.023438 4.300781 33.769531 4.730469 C 33.519531 5.148438 33.222656 5.640625 33.105469 5.808594 L 32.894531 6.125 L 32.820312 5.914062 C 32.332031 4.574219 32 3.992188 31.421875 3.480469 C 30.816406 2.941406 27.5 1.351562 25.65625 0.722656 C 25.023438 0.503906 23.96875 0.425781 23.375 0.558594 C 21.449219 0.980469 18.914062 3.671875 17.0625 7.25 C 15.804688 9.6875 14.90625 12.738281 14.539062 15.832031 C 14.363281 17.289062 14.308594 18.59375 14.316406 21.453125 C 14.324219 23.132812 14.296875 24.527344 14.269531 24.546875 C 14.234375 24.570312 13.449219 24.722656 12.507812 24.898438 C 10.035156 25.363281 8.867188 25.746094 7.355469 26.609375 C 4.101562 28.464844 1.40625 32.21875 0.453125 36.226562 C -0.320312 39.5 -0.0625 43.242188 1.1875 46.925781 C 2.460938 50.667969 5.0625 55.421875 7.953125 59.320312 C 11.082031 63.53125 15.332031 66.921875 21.214844 69.890625 C 25.414062 72.007812 29.480469 73.5 33.214844 74.289062 C 34.152344 74.488281 38.957031 75.3125 40.15625 75.480469 C 42.824219 75.859375 44.855469 75.980469 48.566406 75.980469 C 54.242188 75.972656 57.273438 75.648438 61.425781 74.613281 C 65.769531 73.519531 69.34375 72.070312 73.5625 69.6875 C 74.351562 69.238281 75.191406 68.761719 75.441406 68.621094 C 76.375 68.105469 77.097656 67.367188 78.625 65.378906 C 80.863281 62.480469 82.535156 59.796875 83.769531 57.132812 C 84.75 55.003906 86.671875 50.097656 87.261719 48.1875 C 88.054688 45.636719 88.527344 43.226562 88.839844 40.144531 C 88.945312 39.128906 88.964844 38.273438 88.964844 35.167969 C 88.957031 31.476562 88.910156 30.160156 88.679688 27.8125 C 88.492188 25.90625 88.097656 23.265625 87.707031 21.296875 C 87.34375 19.503906 86.046875 14.039062 85.65625 12.695312 C 84.96875 10.320312 84.179688 8.429688 83.125 6.621094 C 82.359375 5.308594 81.074219 3.65625 80.664062 3.460938 C 80.15625 3.214844 78.027344 2.507812 77.320312 2.339844 C 76.246094 2.09375 73.785156 1.96875 73.160156 2.128906 C 72.074219 2.410156 71.066406 3.40625 70.296875 4.960938 L 69.941406 5.675781 L 69.449219 5.246094 C 68.363281 4.300781 66.667969 3.371094 64.804688 2.675781 C 63.53125 2.199219 63.113281 2.101562 62.417969 2.101562 C 61.320312 2.101562 59.867188 2.605469 58.664062 3.410156 C 56.558594 4.828125 54.492188 8.226562 53.539062 11.875 C 52.96875 14.054688 52.710938 16.617188 52.84375 18.753906 C 53.050781 22.195312 53.671875 25.011719 55.875 32.632812 C 56.390625 34.414062 56.847656 36.046875 56.890625 36.25 C 57 36.765625 56.871094 36.96875 56.113281 37.453125 C 55.429688 37.886719 54.859375 38.054688 54.21875 38.027344 L 53.78125 38.007812 L 53.460938 36.429688 C 52.523438 31.773438 51.976562 30.117188 50.285156 26.867188 C 48.519531 23.460938 47.363281 19.695312 46.648438 14.992188 C 46.496094 13.996094 46.398438 11.910156 46.503906 11.910156 C 46.53125 11.917969 46.789062 12.21875 47.074219 12.597656 C 49 15.105469 49.699219 15.679688 50.394531 15.316406 C 50.738281 15.140625 50.839844 14.851562 50.882812 14.011719 L 50.917969 13.261719 L 51.328125 13.429688 C 51.878906 13.65625 52.390625 13.632812 52.578125 13.375 C 52.886719 12.96875 52.921875 10.347656 52.640625 9.058594 C 52.140625 6.726562 51.050781 5.003906 49.214844 3.601562 C 47.488281 2.296875 45.535156 1.402344 42.421875 0.484375 C 40.820312 0.015625 40.1875 -0.0703125 39.460938 0.0976562 Z M 25.171875 2.117188 C 25.53125 2.296875 26.03125 2.894531 26.3125 3.46875 C 26.53125 3.921875 26.726562 4.792969 26.832031 5.757812 C 27.054688 7.785156 26.742188 9.640625 25.859375 11.558594 L 25.554688 12.226562 L 25.511719 11.140625 C 25.484375 10.542969 25.414062 9.800781 25.351562 9.492188 C 25.046875 8.0625 24.398438 6.570312 23.453125 5.113281 C 22.679688 3.929688 22.582031 3.550781 22.910156 2.894531 C 23.210938 2.296875 23.746094 1.96875 24.441406 1.960938 C 24.746094 1.960938 24.949219 2.003906 25.171875 2.117188 Z M 41.71875 2.03125 C 42.746094 2.226562 43.457031 2.84375 44.277344 4.238281 C 44.675781 4.910156 44.980469 5.722656 45.140625 6.515625 C 45.265625 7.109375 45.273438 7.308594 45.222656 8.371094 C 45.125 10.195312 45.160156 12.367188 45.292969 13.519531 C 45.410156 14.515625 45.953125 18.230469 46.097656 18.984375 C 46.414062 20.632812 46.980469 22.25 48.464844 25.640625 C 49.972656 29.101562 50.652344 31.183594 52.007812 36.535156 C 52.28125 37.613281 52.628906 38.980469 52.78125 39.570312 C 52.925781 40.15625 53.050781 40.78125 53.050781 40.964844 C 53.050781 41.363281 52.921875 42.175781 52.851562 42.175781 C 52.824219 42.175781 52.273438 41.59375 51.628906 40.894531 C 50.375 39.511719 49.910156 39.113281 49.625 39.191406 C 49.527344 39.210938 49.4375 39.273438 49.414062 39.332031 C 49.394531 39.378906 49.511719 40.128906 49.679688 40.992188 C 49.847656 41.851562 50.019531 42.855469 50.0625 43.210938 C 50.171875 44.019531 50.117188 45.972656 49.957031 47.003906 C 49.824219 47.855469 49.472656 49.316406 49.375 49.414062 C 49.289062 49.496094 49.304688 49.53125 49.054688 48.621094 C 48.957031 48.257812 48.6875 47.578125 48.464844 47.113281 C 47.886719 45.945312 46.917969 44.109375 46.800781 43.96875 C 46.746094 43.90625 46.601562 43.855469 46.453125 43.855469 C 46.140625 43.855469 45.960938 44.023438 45.746094 44.523438 C 45.589844 44.867188 45.589844 44.914062 45.640625 46.671875 C 45.660156 47.667969 45.675781 48.480469 45.660156 48.480469 C 45.589844 48.480469 43.832031 47.6875 43.4375 47.472656 C 43.171875 47.332031 42.894531 47.21875 42.824219 47.21875 C 42.421875 47.21875 42.074219 47.652344 42.171875 48.039062 C 42.261719 48.398438 43.191406 49.125 44.011719 49.46875 C 44.515625 49.679688 46.230469 50.042969 46.738281 50.050781 C 47.363281 50.050781 47.433594 49.742188 47.003906 48.9375 C 46.675781 48.347656 46.605469 48.144531 46.507812 47.464844 C 46.441406 46.945312 46.496094 45.558594 46.59375 45.65625 C 46.703125 45.769531 47.488281 47.347656 47.726562 47.925781 C 48.039062 48.699219 48.226562 49.449219 48.359375 50.429688 C 48.476562 51.316406 48.53125 51.472656 48.78125 51.535156 C 49.0625 51.605469 49.277344 51.457031 49.554688 51.023438 C 50 50.316406 50.792969 48.683594 51.015625 47.992188 C 51.417969 46.75 51.460938 46.429688 51.5 44.328125 L 51.535156 42.378906 L 51.882812 42.769531 C 52.292969 43.234375 52.65625 43.4375 53.066406 43.4375 C 53.65625 43.4375 53.957031 43.105469 54.136719 42.257812 C 54.304688 41.460938 54.269531 40.949219 53.992188 39.960938 C 53.949219 39.828125 53.984375 39.816406 54.742188 39.738281 C 55.679688 39.644531 56.097656 39.511719 56.953125 39.023438 C 57.292969 38.820312 57.59375 38.671875 57.605469 38.6875 C 57.621094 38.699219 57.730469 39.273438 57.855469 39.96875 C 58.058594 41.117188 58.078125 41.363281 58.085938 42.734375 C 58.09375 44.734375 57.914062 45.867188 57.203125 48.347656 C 56.765625 49.859375 56.542969 50.996094 56.675781 51.074219 C 56.890625 51.214844 57.085938 50.871094 57.886719 48.972656 C 58.726562 46.960938 59.34375 44.972656 59.777344 42.875 C 60.011719 41.75 60.035156 41.558594 60.035156 40.460938 C 60.035156 38.566406 60.003906 38.460938 57.808594 30.722656 C 56.980469 27.828125 56.214844 25.074219 56.113281 24.589844 C 55.367188 21.347656 54.949219 16.507812 55.242188 14.4375 C 55.519531 12.46875 56.335938 10.066406 57.300781 8.371094 C 58.316406 6.578125 59.902344 5.113281 61.917969 4.113281 C 63.238281 3.453125 63.292969 3.453125 64.058594 4.042969 C 65.144531 4.875 66.195312 6.136719 66.742188 7.265625 C 67.347656 8.492188 67.488281 9.21875 67.621094 11.785156 C 67.910156 17.339844 68.328125 20.339844 69.28125 23.679688 C 70.191406 26.859375 71 28.71875 73.148438 32.535156 C 73.683594 33.496094 74.503906 34.988281 74.96875 35.863281 C 75.929688 37.671875 76.464844 38.59375 77.257812 39.816406 C 78.925781 42.378906 80.050781 45.476562 80.65625 49.152344 C 80.765625 49.832031 80.878906 50.40625 80.894531 50.421875 C 80.988281 50.519531 81.136719 49.945312 81.207031 49.179688 C 81.394531 47.015625 81.371094 46.050781 81.109375 44.71875 C 80.523438 41.8125 78.660156 37.867188 75.628906 33.101562 C 74.480469 31.300781 73.632812 29.824219 73.632812 29.628906 C 73.632812 29.523438 73.730469 29.195312 73.847656 28.898438 C 74.621094 26.945312 74.578125 25.125 73.597656 18.523438 C 73.433594 17.402344 73.277344 16.667969 73.113281 16.140625 C 72.980469 15.722656 72.867188 15.371094 72.867188 15.355469 C 72.867188 15.34375 72.929688 15.351562 73.007812 15.378906 C 73.222656 15.449219 73.683594 15.285156 73.953125 15.046875 C 74.273438 14.769531 74.65625 14.195312 75.71875 12.402344 C 76.796875 10.59375 77.074219 10.199219 77.667969 9.648438 C 78.382812 8.980469 79.007812 8.695312 80.460938 8.378906 C 80.558594 8.359375 80.789062 8.226562 80.960938 8.09375 C 81.144531 7.957031 81.308594 7.847656 81.335938 7.847656 C 81.414062 7.847656 82.492188 10.101562 82.902344 11.105469 C 84.558594 15.183594 85.398438 19.324219 85.816406 25.394531 C 85.941406 27.226562 85.941406 36.675781 85.816406 37.867188 C 85.765625 38.328125 85.683594 39.421875 85.628906 40.296875 C 85.390625 43.933594 84.757812 46.910156 83.328125 51.144531 C 82.082031 54.835938 80.761719 57.574219 78.5625 61.042969 C 77.054688 63.417969 74.605469 66.753906 74.253906 66.921875 C 74.121094 66.984375 73.1875 67.355469 72.179688 67.738281 C 63.921875 70.933594 59.558594 72.113281 54.164062 72.628906 C 51.953125 72.839844 45.257812 72.769531 42.066406 72.503906 C 37.09375 72.089844 31.304688 70.710938 26.386719 68.777344 C 23.480469 67.636719 21.699219 66.660156 18.828125 64.644531 C 15.652344 62.410156 13.90625 60.953125 11.679688 58.667969 C 10.046875 56.992188 8.816406 55.507812 7.460938 53.59375 C 6.855469 52.746094 5.617188 50.777344 5.660156 50.742188 C 5.679688 50.722656 6.015625 50.863281 6.410156 51.058594 C 7.871094 51.773438 9.085938 52.027344 10.769531 51.960938 C 12.34375 51.898438 13.566406 51.605469 15.4375 50.847656 C 17.621094 49.960938 19.058594 49.097656 21.761719 47.042969 C 22.582031 46.429688 24.050781 45.335938 25.023438 44.628906 C 27.554688 42.769531 27.792969 42.53125 27.953125 41.613281 C 27.992188 41.371094 28.167969 40.867188 28.335938 40.492188 C 28.5 40.128906 28.863281 39.121094 29.140625 38.253906 C 29.410156 37.382812 29.660156 36.65625 29.691406 36.621094 C 29.710938 36.59375 30.09375 36.914062 30.539062 37.328125 C 31.46875 38.210938 32.1875 38.769531 33.105469 39.339844 C 33.828125 39.78125 33.929688 39.878906 33.929688 40.136719 C 33.929688 40.578125 32.847656 42.160156 31.851562 43.164062 C 30.613281 44.417969 29.613281 45.011719 28.042969 45.417969 C 27.542969 45.546875 27.417969 45.609375 27.277344 45.796875 L 27.101562 46.023438 L 27.339844 46.167969 C 27.542969 46.296875 27.640625 46.308594 28.089844 46.273438 C 29.882812 46.132812 31.28125 45.503906 32.945312 44.109375 C 34.4375 42.847656 35.105469 41.859375 36.449219 38.917969 C 37.566406 36.472656 37.734375 35.421875 37.375 33.101562 C 37.121094 31.5 36.816406 29.984375 35.675781 24.800781 C 35.042969 21.914062 34.59375 19.582031 34.460938 18.507812 C 34.085938 15.539062 34.167969 11.824219 34.660156 9.347656 C 35.480469 5.261719 37.8125 2.394531 40.605469 2.039062 C 41.253906 1.953125 41.308594 1.953125 41.71875 2.03125 Z M 45.550781 3.074219 C 48.34375 4.042969 50.902344 7.242188 51.390625 10.367188 C 51.425781 10.628906 51.453125 11.007812 51.4375 11.203125 L 51.417969 11.566406 L 50.757812 10.566406 C 49.332031 8.394531 48.171875 7.019531 46.898438 6.023438 C 46.59375 5.785156 46.292969 5.527344 46.230469 5.445312 C 46.121094 5.296875 45.054688 3.0625 45.054688 2.984375 C 45.054688 2.914062 45.152344 2.933594 45.550781 3.074219 Z M 74.683594 3.417969 C 74.851562 3.53125 75.03125 3.707031 75.085938 3.804688 C 75.21875 4.054688 75.246094 4.007812 73.570312 6.683594 L 72.171875 8.917969 L 71.785156 8.085938 C 71.570312 7.628906 71.375 7.125 71.359375 6.972656 C 71.316406 6.628906 71.570312 5.921875 71.980469 5.21875 C 72.328125 4.625 73.328125 3.566406 73.722656 3.371094 C 74.113281 3.171875 74.316406 3.1875 74.683594 3.417969 Z M 29.285156 3.734375 C 30.050781 4.191406 30.664062 4.972656 30.96875 5.898438 C 31.546875 7.621094 30.996094 9.996094 29.578125 11.929688 C 29.222656 12.414062 28.375 13.242188 28.230469 13.242188 C 28.160156 13.242188 28.160156 12.660156 28.222656 11.992188 C 28.265625 11.585938 28.382812 11.0625 28.507812 10.683594 C 29.28125 8.386719 29.210938 5.730469 28.320312 3.382812 C 28.269531 3.265625 28.847656 3.476562 29.285156 3.734375 Z M 79.480469 4.546875 C 79.863281 4.945312 80.101562 5.511719 80.101562 6.046875 C 80.101562 6.613281 79.941406 6.851562 79.335938 7.195312 C 78.25 7.796875 77.617188 8.253906 76.886719 8.960938 C 75.753906 10.046875 75.203125 10.789062 73.472656 13.554688 C 73.285156 13.851562 73.125 14.082031 73.113281 14.066406 C 73.097656 14.0625 73.050781 13.554688 73.007812 12.960938 L 72.925781 11.867188 L 73.910156 9.984375 C 75.226562 7.46875 75.957031 6.144531 76.296875 5.652344 C 76.769531 4.972656 77.589844 4.449219 78.464844 4.273438 C 79.042969 4.160156 79.132812 4.183594 79.480469 4.546875 Z M 21.820312 6.109375 C 22.625 7.378906 23.222656 8.769531 23.460938 9.949219 C 23.558594 10.445312 23.621094 11.070312 23.78125 12.988281 C 23.847656 13.886719 23.917969 14.066406 24.273438 14.285156 C 24.726562 14.566406 25.734375 14.515625 26.214844 14.195312 L 26.449219 14.03125 L 27.046875 14.417969 C 28.007812 15.042969 27.921875 14.84375 27.972656 16.519531 C 28.035156 18.71875 28.304688 20.578125 28.925781 22.945312 C 29.398438 24.773438 29.683594 25.640625 30.28125 27.042969 C 31.296875 29.4375 32.472656 32.339844 32.472656 32.453125 C 32.472656 32.527344 32.332031 32.488281 31.894531 32.253906 C 31.171875 31.875 30.832031 31.8125 30.59375 32.003906 C 30.449219 32.121094 30.421875 32.214844 30.398438 32.675781 C 30.386719 32.96875 30.351562 33.207031 30.324219 33.207031 C 30.300781 33.199219 30.09375 32.941406 29.863281 32.625 C 29.632812 32.3125 29.042969 31.535156 28.550781 30.894531 C 26.171875 27.839844 25.40625 27.140625 23.277344 26.054688 C 21.972656 25.390625 20.90625 24.949219 19.933594 24.667969 C 18.949219 24.378906 18.640625 24.324219 17.757812 24.269531 L 16.980469 24.21875 L 16.9375 23.96875 C 16.820312 23.167969 16.742188 21.628906 16.777344 20.589844 C 16.992188 14.796875 18.820312 8.539062 21.117188 5.78125 C 21.253906 5.605469 21.382812 5.464844 21.386719 5.464844 C 21.394531 5.464844 21.589844 5.757812 21.820312 6.109375 Z M 68.890625 6.488281 C 69.328125 6.753906 70.421875 8.316406 70.984375 9.484375 C 71.535156 10.621094 72.105469 12.429688 72.105469 13.046875 C 72.105469 13.578125 71.832031 13.84375 71.511719 13.632812 C 71.347656 13.519531 71.324219 13.464844 71.101562 12.503906 C 70.84375 11.378906 70.171875 10.4375 69.273438 9.960938 C 69.03125 9.835938 68.800781 9.667969 68.757812 9.585938 C 68.695312 9.464844 68.46875 8.308594 68.175781 6.675781 C 68.148438 6.5 68.160156 6.453125 68.257812 6.425781 C 68.515625 6.363281 68.71875 6.375 68.890625 6.488281 Z M 48.09375 9.492188 C 48.539062 10.082031 48.972656 10.902344 49.195312 11.566406 C 49.359375 12.042969 49.554688 13.144531 49.492188 13.214844 C 49.457031 13.242188 48.074219 11.496094 46.949219 9.996094 C 46.398438 9.269531 46.378906 9.234375 46.378906 8.863281 C 46.378906 8.652344 46.414062 8.316406 46.453125 8.113281 L 46.539062 7.742188 L 47.136719 8.371094 C 47.460938 8.722656 47.898438 9.226562 48.09375 9.492188 Z M 69.425781 11.875 C 69.515625 12.027344 69.613281 12.273438 69.636719 12.421875 C 69.699219 12.75 69.609375 14.011719 69.523438 14.011719 C 69.433594 14.011719 69.105469 13.402344 69.042969 13.113281 C 69.015625 12.976562 68.96875 12.492188 68.941406 12.050781 L 68.890625 11.246094 L 69.078125 11.417969 C 69.183594 11.519531 69.335938 11.722656 69.425781 11.875 Z M 32.5625 14.726562 C 32.632812 19.28125 32.785156 20.316406 34.488281 27.742188 C 35.730469 33.179688 35.683594 32.914062 35.726562 34.34375 C 35.738281 35.023438 35.730469 36.074219 35.703125 36.675781 L 35.65625 37.761719 L 34.875 37.363281 C 34.257812 37.03125 34 36.851562 33.582031 36.429688 C 33.125 35.96875 32.992188 35.777344 32.519531 34.847656 C 32.226562 34.257812 31.984375 33.769531 31.984375 33.742188 C 31.984375 33.71875 32.179688 33.796875 32.421875 33.910156 C 33 34.1875 33.359375 34.1875 33.667969 33.914062 C 33.855469 33.746094 33.898438 33.664062 33.890625 33.4375 C 33.875 33.074219 32.847656 30.355469 31.914062 28.234375 C 31.289062 26.804688 31.117188 26.257812 30.421875 23.460938 C 29.550781 19.9375 29.308594 18.292969 29.355469 16.085938 L 29.378906 14.902344 L 29.585938 14.742188 C 29.703125 14.648438 29.96875 14.445312 30.175781 14.292969 C 30.691406 13.90625 31.566406 13.03125 32.003906 12.449219 C 32.207031 12.191406 32.402344 11.980469 32.441406 11.980469 C 32.5 11.980469 32.535156 12.785156 32.5625 14.726562 Z M 71.066406 15.679688 C 71.421875 16.605469 71.785156 18.027344 71.9375 19.175781 C 72.105469 20.367188 72.105469 23.210938 71.945312 24.652344 C 71.882812 25.207031 71.820312 25.675781 71.796875 25.691406 C 71.757812 25.738281 71.285156 24.554688 70.878906 23.378906 C 70.183594 21.320312 69.671875 19.210938 69.253906 16.679688 C 69.140625 15.964844 69.042969 15.351562 69.042969 15.308594 C 69.042969 15.246094 69.21875 15.222656 69.59375 15.230469 C 70.109375 15.238281 70.15625 15.222656 70.40625 15.019531 C 70.589844 14.875 70.691406 14.824219 70.726562 14.878906 C 70.761719 14.921875 70.90625 15.28125 71.066406 15.679688 Z M 19.074219 26.839844 C 19.808594 26.992188 20.671875 27.203125 21 27.300781 C 21.679688 27.5 22.972656 28.09375 22.898438 28.171875 C 22.867188 28.199219 22.339844 28.414062 21.734375 28.660156 C 20.609375 29.109375 19.359375 29.804688 18.933594 30.210938 C 18.570312 30.558594 18.40625 31.042969 18.441406 31.636719 C 18.515625 32.824219 19.148438 33.460938 20.628906 33.84375 C 21.796875 34.148438 23.113281 34.097656 24.503906 33.691406 C 24.886719 33.578125 25.585938 33.4375 26.054688 33.375 C 26.839844 33.269531 26.914062 33.269531 27.144531 33.382812 C 27.429688 33.515625 28.3125 34.558594 28.617188 35.113281 C 28.800781 35.449219 28.820312 35.546875 28.8125 36.082031 C 28.808594 36.851562 28.554688 37.804688 27.988281 39.234375 C 27.75 39.828125 27.421875 40.71875 27.257812 41.214844 C 27.054688 41.832031 26.910156 42.167969 26.777344 42.300781 C 26.671875 42.40625 25.460938 43.316406 24.085938 44.328125 C 22.714844 45.34375 20.96875 46.636719 20.210938 47.21875 C 17.808594 49.0625 16.011719 49.980469 13.773438 50.539062 C 11.417969 51.128906 9.421875 51.15625 7.855469 50.617188 C 7.292969 50.429688 6.1875 49.890625 5.917969 49.679688 L 5.742188 49.546875 L 6.050781 49.035156 C 6.214844 48.746094 6.625 48.089844 6.953125 47.570312 C 8.519531 45.125 9.054688 43.851562 9.429688 41.613281 C 9.691406 40.066406 9.714844 39.492188 9.53125 39.015625 C 9.429688 38.734375 9.277344 38.519531 9.03125 38.289062 C 8.296875 37.59375 7.539062 37.480469 6.558594 37.929688 C 6.25 38.070312 5.953125 38.183594 5.890625 38.183594 C 5.832031 38.183594 5.535156 38.308594 5.222656 38.46875 C 4.199219 38.980469 3.566406 39.757812 2.601562 41.691406 L 2.058594 42.769531 L 1.960938 42.035156 C 1.90625 41.628906 1.855469 40.824219 1.855469 40.25 C 1.84375 39.09375 1.925781 38.636719 2.289062 37.867188 C 2.53125 37.355469 3.664062 35.695312 4.492188 34.644531 C 5.285156 33.640625 7.191406 31.730469 7.871094 31.261719 C 9.289062 30.28125 10.511719 30.011719 11.917969 30.378906 C 12.382812 30.496094 12.65625 30.484375 12.722656 30.335938 C 12.753906 30.28125 12.816406 30.046875 12.847656 29.824219 C 12.960938 29.242188 13.183594 28.828125 13.699219 28.28125 C 14.558594 27.351562 15.609375 26.753906 16.742188 26.550781 C 17.210938 26.46875 17.570312 26.511719 19.074219 26.839844 Z M 13.539062 27.625 C 12.925781 28.242188 12.523438 28.898438 12.371094 29.53125 C 12.328125 29.71875 12.277344 29.886719 12.273438 29.902344 C 12.265625 29.90625 12.089844 29.878906 11.882812 29.84375 C 10.546875 29.585938 9.84375 29.621094 8.886719 29.992188 C 7.246094 30.628906 4.964844 32.703125 3.113281 35.238281 C 2.761719 35.730469 2.503906 36.011719 2.503906 35.917969 C 2.503906 35.640625 3.28125 33.929688 3.726562 33.222656 C 5.054688 31.121094 6.640625 29.886719 9.769531 28.515625 C 11.1875 27.890625 13.585938 27.058594 13.988281 27.050781 C 14.050781 27.042969 13.871094 27.273438 13.539062 27.625 Z M 24.164062 29.242188 C 24.355469 29.507812 25.003906 30.371094 25.601562 31.167969 L 26.699219 32.613281 L 26.261719 32.660156 C 25.859375 32.710938 25.574219 32.78125 23.800781 33.25 C 23.425781 33.347656 22.839844 33.445312 22.492188 33.46875 L 21.867188 33.507812 L 22.265625 33.089844 C 22.738281 32.585938 22.917969 32.078125 22.839844 31.5 C 22.738281 30.699219 22.359375 30.25 21.445312 29.808594 L 20.902344 29.550781 L 21.527344 29.304688 C 22.359375 28.976562 23.273438 28.730469 23.570312 28.746094 C 23.785156 28.757812 23.855469 28.816406 24.164062 29.242188 Z M 5.394531 39.710938 C 5.402344 40.992188 6.050781 41.824219 7.191406 42.042969 C 7.550781 42.105469 8.234375 42.019531 8.648438 41.851562 C 8.769531 41.8125 8.773438 41.832031 8.726562 42.183594 C 8.566406 43.4375 7.570312 45.558594 6.097656 47.800781 L 5.097656 49.335938 L 4.5625 48.746094 C 4.136719 48.292969 3.949219 48.019531 3.683594 47.464844 C 3.207031 46.457031 2.351562 44.144531 2.351562 43.855469 C 2.351562 43.582031 2.859375 42.386719 3.332031 41.546875 C 3.808594 40.691406 4.378906 39.941406 4.886719 39.5 C 5.144531 39.273438 5.367188 39.09375 5.375 39.09375 C 5.382812 39.09375 5.390625 39.367188 5.394531 39.710938 Z M 5.394531 39.710938 "/>
<path style=" stroke:none;fill-rule:nonzero;fill:rgb(0%,0%,0%);fill-opacity:1;" d="M 15.574219 34.925781 C 15.324219 34.980469 14.886719 35.140625 14.601562 35.28125 C 13.667969 35.742188 12.65625 36.949219 12.65625 37.601562 C 12.65625 37.921875 12.792969 38.167969 13.15625 38.503906 C 13.574219 38.898438 13.996094 39.050781 14.539062 39.007812 C 14.902344 38.980469 15.125 38.898438 16.039062 38.421875 C 16.632812 38.117188 17.238281 37.761719 17.382812 37.636719 C 17.773438 37.304688 17.890625 36.929688 17.855469 36.171875 C 17.820312 35.421875 17.6875 35.132812 17.328125 34.980469 C 16.964844 34.828125 16.117188 34.796875 15.574219 34.925781 Z M 15.574219 34.925781 "/>
<path style=" stroke:none;fill-rule:nonzero;fill:rgb(0%,0%,0%);fill-opacity:1;" d="M 20.128906 35.882812 C 20.023438 35.980469 19.835938 36.324219 19.683594 36.726562 C 18.917969 38.652344 17.472656 39.914062 15.441406 40.417969 C 14.609375 40.628906 14.300781 40.65625 12.941406 40.640625 C 12.238281 40.640625 11.542969 40.667969 11.394531 40.703125 C 10.6875 40.902344 10.570312 41.804688 11.214844 42.15625 C 11.410156 42.257812 11.652344 42.28125 13.070312 42.28125 C 14.867188 42.28125 15.324219 42.222656 16.410156 41.882812 C 17.9375 41.390625 19.140625 40.550781 20.171875 39.253906 C 20.886719 38.34375 21.492188 36.898438 21.386719 36.332031 C 21.285156 35.792969 20.546875 35.527344 20.128906 35.882812 Z M 20.128906 35.882812 "/>
</g>
</svg>
